# xmcd
#
# Track frame offsets: 
#        150
#        12559
#        25280
#        35368
#        47301
#        58035
#        68812
#        78786
#        88824
#        99571
#        110422
#        123103
#        132672
#        146087
#        155782
#        165139
#        176596
#        188600
#        199826
#        209871
#        219462
#        242066
#        255065
#        263698
#        277607
#
# Disc length: 3844 seconds
#
# Revision: 0
# Processed by: cddbd v1.5.2PL0 Copyright (c) Steve Scherf et al.
# Submitted via: ExactAudioCopyFreeDBPlugin 1.0
#
DISCID=570f0219
DTITLE=Johnny Cash and June Carter - Country lovers
DYEAR=2014
DGENRE=Country
TTITLE0=I walk the line
TTITLE1=Long black veil (live)
TTITLE2=It's raining here this morning
TTITLE3=I'm so lonesome i could cry
TTITLE4=In the jailhouse now
TTITLE5=No swallerin' place
TTITLE6=Just one more
TTITLE7=Let me go, Lover
TTITLE8=My shoes keep walking back to you
TTITLE9=Left over lovin'
TTITLE10=Ring of fire (live)
TTITLE11=Smiling Bill McCall
TTITLE12=He don't love me anymore
TTITLE13=Bandana (Instrumental)
TTITLE14=A bucket of love
TTITLE15=Big river
TTITLE16=Sixteen tons (live)
TTITLE17=Huckle buck
TTITLE18=Girl in Saskatoon
TTITLE19=Time's a wastin'
TTITLE20=Loading coal
TTITLE21=Tennessee Mambo
TTITLE22=Second honeymoon
TTITLE23=Lumberjack
TTITLE24=We've got things to do
EXTD=
EXTT0=
EXTT1=
EXTT2=
EXTT3=
EXTT4=
EXTT5=
EXTT6=
EXTT7=
EXTT8=
EXTT9=
EXTT10=
EXTT11=
EXTT12=
EXTT13=
EXTT14=
EXTT15=
EXTT16=
EXTT17=
EXTT18=
EXTT19=
EXTT20=
EXTT21=
EXTT22=
EXTT23=
EXTT24=
PLAYORDER=
